<svg xmlns="http://www.w3.org/2000/svg" width="0.6181in" height="0.6181in" viewBox="0 0 44.5 44.5">
  <defs>
    <style>
      .cls-1 {
        fill: #122c49;
      }

      .cls-2 {
        fill: #fcfcfc;
      }

      .cls-3 {
        fill: #f7f7f7;
      }

      .cls-4 {
        fill: #fec12f;
      }

      .cls-5 {
        fill: #fbfafc;
      }

      .cls-6, .cls-7, .cls-8 {
        isolation: isolate;
      }

      .cls-7 {
        font-size: 10.258px;
      }

      .cls-7, .cls-8 {
        fill: #f9f9f9;
        font-family: BerlinSansFB-Reg, Berlin Sans FB;
      }

      .cls-8 {
        font-size: 6.1548px;
      }
    </style>
  </defs>
  <g id="Layer_2" data-name="Layer 2">
    <circle class="cls-1" cx="22.25" cy="22.25" r="22.25"/>
    <path class="cls-2" d="M53.7223,34.2457c-5.8418-.1846-10.5762,4.2159-10.2057,9.486.3172,4.5125,4.4311,8.1247,9.4328,8.2827,5.8418.1847,10.5762-4.2158,10.2057-9.4859C62.838,38.016,58.7243,34.4039,53.7223,34.2457Zm.0871,15.93c-4.64.3308-8.5171-3.0737-8.283-7.2731.193-3.4631,3.2606-6.3145,7.087-6.5872,4.64-.3308,8.5173,3.0736,8.283,7.273C60.7034,47.0519,57.6358,49.9032,53.8094,50.176Z" transform="translate(-30.25 -30.75)"/>
    <polygon class="cls-3" points="33.355 25.183 26.704 10.748 24.734 10.726 31.385 25.183 33.355 25.183"/>
    <polygon class="cls-4" points="24.734 10.726 17.691 25.308 19.919 25.308 20.849 23.548 25.211 14.993 31.61 29.517 33.68 29.503 24.734 10.726"/>
    <g>
      <path class="cls-5" d="M53.6837,63.7135q0,.0559-.1121.056c-.06,0-.146-.0048-.26-.0139s-.2012-.0143-.2607-.0143-.1482.0047-.267.0143-.208.0139-.2673.0139q-.1314,0-.3351-.71t-.4148-.7192q-.1736-.01-.9045-.01h-.74q-.7733,0-.8811.01-.169.0136-.3585.7218t-.2932.7076H47.5344c-.0623,0-.0935-.0218-.0935-.0657a.8.8,0,0,1,.0662-.2108l1.1481-3.14q.1454-.3793.8811-2.1885.1314-.3.3564-.9048.056-.1779.1217-.1777a2.1366,2.1366,0,0,1,.2625.0234,2.12,2.12,0,0,0,.2626.0231,1.857,1.857,0,0,0,.2555-.0257,1.9169,1.9169,0,0,1,.2507-.0256q.042,0,.1171.1735.1125.2627,1.1108,2.8258Q53.6838,63.6808,53.6837,63.7135ZM51.5,61.1265a7.8414,7.8414,0,0,0-.4218-1.2186q-.4077-1.05-.5764-1.378-.97,2.4743-.97,2.5918,0,.1592.356.1873.0184.0045.4593.0048H50.83q.67,0,.67-.1873Z" transform="translate(-30.25 -30.75)"/>
      <path class="cls-5" d="M56.4394,61.9078a2.1539,2.1539,0,0,1-.0252.4615,5.4629,5.4629,0,0,1-.4554.7392,3.302,3.302,0,0,1-.5063.661.8892.8892,0,0,1-.2364.017,1.12,1.12,0,0,1-.2473-.017,3.0584,3.0584,0,0,1-.5145-.6353,5.7848,5.7848,0,0,1-.4755-.7227,1.6593,1.6593,0,0,1-.0673-.5484q0-.1155.0056-.346t.0057-.3459a.0545.0545,0,0,1,.046-.0617.0517.0517,0,0,1,.0157,0c.0623,0,.1543.0026.2773.0083s.2151.0089.2768.0089c.0339,0,.05.0187.05.056q0,.09-.0109.2656c-.0078.1173-.0113.206-.0113.2659a3.6566,3.6566,0,0,0,.0278.4724,2.0636,2.0636,0,0,0,.2855.5232q.2713.4159.336.4159.0619,0,.307-.4076a2.2228,2.2228,0,0,0,.2586-.5033,3.4885,3.4885,0,0,0,.0226-.4836c0-.0623-.0061-.1547-.0183-.2786s-.0182-.2164-.0182-.2781a.0372.0372,0,0,1,.0314-.0422H55.81q.0926,0,.2725-.01t.27-.01Q56.4393,61.1124,56.4394,61.9078Z" transform="translate(-30.25 -30.75)"/>
      <path class="cls-5" d="M57.6571,60.4064q0,.346-.3851.3459-.391,0-.3911-.3459a.32.32,0,0,1,.1213-.256.4253.4253,0,0,1,.541.0031A.3187.3187,0,0,1,57.6571,60.4064Zm-.02.7622q0,.2165-.0265.6536t-.027.6567q0,.2052.0089.6144c.0053.2725.0083.4767.0083.6115,0,.04-.0169.0591-.0508.0591h-.5482c-.04,0-.0591-.0383-.0591-.1152q0-.1943.0095-.5836t.01-.5862q0-.22-.0321-.658t-.0327-.6579c0-.0322.02-.0478.0591-.0478a1.3369,1.3369,0,0,1,.1561.0139.9157.9157,0,0,0,.3176,0,1.3447,1.3447,0,0,1,.1591-.0139C57.6214,61.1152,57.6375,61.133,57.6375,61.1686Z" transform="translate(-30.25 -30.75)"/>
      <path class="cls-5" d="M60.8963,59.8466q0,.3631-.0321,1.0869t-.0326,1.0842q0,1.1109.0478,1.6814l.003.0365c.0018.0192-.0234.0312-.076.0365a.96.96,0,0,1-.1517,0c-.0787-.0052-.1151-.0082-.11-.0082-.0279,0-.0691.003-.1234.0082s-.0957.0089-.1239.0089q-.0391,0-.0465-.1958a.5761.5761,0,0,0-.0209-.1981.1647.1647,0,0,0-.0421.0364,1.1867,1.1867,0,0,1-1.82-.0169,1.4711,1.4711,0,0,1-.3459-.9839,1.4963,1.4963,0,0,1,.349-1.0069,1.1936,1.1936,0,0,1,.953-.4272.9712.9712,0,0,1,.6188.2078q.1206.1043.239.2112a.0377.0377,0,0,0,.0227-.04v-.9108c0-.0623-.0031-.1557-.0089-.2811s-.0083-.22-.0083-.2843c0-.0452.0148-.0673.0448-.0673q.1043,0,.3094-.0183t.3063-.0182C60.8807,59.788,60.8963,59.8076,60.8963,59.8466Zm-.7027,2.5592a.9144.9144,0,0,0-.2081-.5936.6845.6845,0,0,0-.5511-.2726.7112.7112,0,0,0-.571.27.91.91,0,0,0-.2138.6076.8585.8585,0,0,0,.2221.5874.7138.7138,0,0,0,.5627.2642.6906.6906,0,0,0,.5567-.267A.92.92,0,0,0,60.1936,62.4058Z" transform="translate(-30.25 -30.75)"/>
    </g>
    <g class="cls-6">
      <text class="cls-7" transform="translate(7.0371 36.6514)">Q</text>
      <text class="cls-8" transform="translate(14.4756 36.6514)">uantum</text>
    </g>
  </g>
</svg>
