<?xml version="1.0" encoding="utf-8"?>
<!-- Generator: Adobe Illustrator 24.2.1, SVG Export Plug-In . SVG Version: 6.00 Build 0)  -->
<svg version="1.0" id="Layer_2" xmlns="http://www.w3.org/2000/svg" xmlns:xlink="http://www.w3.org/1999/xlink" x="0px" y="0px"
	 viewBox="0 0 100 100" style="enable-background:new 0 0 100 100;" xml:space="preserve">
<style type="text/css">
	.st0{fill:#2F3E50;}
	.st1{fill:#FCFCFC;}
	.st2{fill:#F7F7F7;}
	.st3{fill:#FEC12F;}
	.st4{fill:#FBFAFC;}
	.st5{fill:#F9F9F9;}
	.st6{font-family:'BerlinSansFB-Reg';}
	.st7{font-size:16.4569px;}
	.st8{font-size:9.8742px;}
</style>
<circle class="st0" cx="50.9" cy="51.4" r="35.7"/>
<path class="st1" d="M52.9,21.3c-9.4-0.3-17,6.8-16.4,15.2c0.5,7.2,7.1,13,15.1,13.3c9.4,0.3,17-6.8,16.4-15.2
	C67.5,27.4,60.9,21.6,52.9,21.3z M53,46.9c-7.4,0.5-13.7-4.9-13.3-11.7C40,29.7,45,25.1,51.1,24.7c7.4-0.5,13.7,4.9,13.3,11.7
	C64.1,41.9,59.2,46.5,53,46.9z"/>
<polygon class="st2" points="68.7,56.1 58.1,33 54.9,32.9 65.6,56.1 "/>
<polygon class="st3" points="54.9,32.9 43.6,56.3 47.2,56.3 48.7,53.5 55.7,39.8 65.9,63.1 69.3,63.1 "/>
<g>
	<path class="st4" d="M52.8,68.6c0,0.1-0.1,0.1-0.2,0.1c-0.1,0-0.2,0-0.4,0c-0.2,0-0.3,0-0.4,0c-0.1,0-0.2,0-0.4,0
		c-0.2,0-0.3,0-0.4,0c-0.1,0-0.3-0.4-0.5-1.1s-0.4-1.1-0.7-1.2c-0.2,0-0.7,0-1.5,0h-1.2c-0.8,0-1.3,0-1.4,0c-0.2,0-0.4,0.4-0.6,1.2
		c-0.2,0.8-0.4,1.1-0.5,1.1H43c-0.1,0-0.1,0-0.1-0.1c0-0.1,0.1-0.2,0.1-0.3l1.8-5c0.2-0.4,0.6-1.6,1.4-3.5c0.1-0.3,0.3-0.8,0.6-1.5
		c0.1-0.2,0.1-0.3,0.2-0.3c0.1,0,0.3,0,0.4,0c0.1,0,0.3,0,0.4,0c0.1,0,0.3,0,0.4,0c0.1,0,0.3,0,0.4,0c0,0,0.1,0.1,0.2,0.3
		c0.1,0.3,0.7,1.8,1.8,4.5C52.1,66.6,52.8,68.6,52.8,68.6z M49.3,64.5c-0.2-0.7-0.4-1.3-0.7-2c-0.4-1.1-0.7-1.9-0.9-2.2
		c-1,2.6-1.6,4-1.6,4.2c0,0.2,0.2,0.3,0.6,0.3c0,0,0.3,0,0.7,0h0.8C49,64.8,49.3,64.7,49.3,64.5L49.3,64.5z"/>
	<path class="st4" d="M57.2,65.7c0,0.2,0,0.5,0,0.7c-0.2,0.4-0.5,0.8-0.7,1.2c-0.2,0.4-0.5,0.7-0.8,1.1c-0.1,0-0.3,0-0.4,0
		c-0.1,0-0.3,0-0.4,0c-0.3-0.3-0.6-0.6-0.8-1c-0.3-0.4-0.5-0.8-0.8-1.2c-0.1-0.3-0.1-0.6-0.1-0.9c0-0.1,0-0.3,0-0.6
		c0-0.2,0-0.4,0-0.6c0,0,0-0.1,0.1-0.1c0,0,0,0,0,0c0.1,0,0.2,0,0.4,0c0.2,0,0.3,0,0.4,0c0.1,0,0.1,0,0.1,0.1c0,0.1,0,0.2,0,0.4
		c0,0.2,0,0.3,0,0.4c0,0.3,0,0.5,0,0.8c0.1,0.3,0.3,0.6,0.5,0.8c0.3,0.4,0.5,0.7,0.5,0.7c0.1,0,0.2-0.2,0.5-0.7
		c0.2-0.3,0.3-0.5,0.4-0.8c0-0.3,0-0.5,0-0.8c0-0.1,0-0.2,0-0.4c0-0.2,0-0.3,0-0.4c0,0,0-0.1,0.1-0.1c0,0,0,0,0,0c0.1,0,0.2,0,0.4,0
		s0.3,0,0.4,0C57.2,64.4,57.2,64.9,57.2,65.7z"/>
	<path class="st4" d="M59.2,63.3c0,0.4-0.2,0.6-0.6,0.6c-0.4,0-0.6-0.2-0.6-0.6c0-0.2,0.1-0.3,0.2-0.4c0.3-0.2,0.6-0.2,0.9,0
		C59.1,63,59.2,63.2,59.2,63.3z M59.2,64.5c0,0.2,0,0.6,0,1c0,0.5,0,0.8,0,1.1c0,0.2,0,0.5,0,1c0,0.4,0,0.8,0,1c0,0.1,0,0.1-0.1,0.1
		h-0.9c-0.1,0-0.1-0.1-0.1-0.2c0-0.2,0-0.5,0-0.9c0-0.4,0-0.7,0-0.9c0-0.2,0-0.6-0.1-1.1S58,64.8,58,64.5c0-0.1,0-0.1,0.1-0.1
		c0.1,0,0.2,0,0.3,0c0.2,0,0.3,0,0.5,0C58.9,64.5,59,64.4,59.2,64.5C59.1,64.4,59.2,64.5,59.2,64.5z"/>
	<path class="st4" d="M64.4,62.4c0,0.4,0,1-0.1,1.7c0,0.8-0.1,1.4-0.1,1.7c0,1.2,0,2.1,0.1,2.7l0,0.1c0,0,0,0-0.1,0.1
		c-0.1,0-0.2,0-0.2,0c-0.1,0-0.2,0-0.2,0c0,0-0.1,0-0.2,0s-0.2,0-0.2,0c0,0-0.1-0.1-0.1-0.3c0-0.1,0-0.2,0-0.3c0,0,0,0-0.1,0.1
		c-0.7,0.8-1.9,0.9-2.7,0.2c-0.1-0.1-0.2-0.2-0.2-0.2c-0.4-0.4-0.6-1-0.6-1.6c0-0.6,0.2-1.2,0.6-1.6c0.4-0.5,0.9-0.7,1.5-0.7
		c0.4,0,0.7,0.1,1,0.3c0.1,0.1,0.3,0.2,0.4,0.3c0,0,0,0,0-0.1v-1.5c0-0.1,0-0.2,0-0.5c0-0.2,0-0.4,0-0.5c0-0.1,0-0.1,0.1-0.1
		c0.1,0,0.3,0,0.5,0C64,62.3,64.2,62.3,64.4,62.4C64.4,62.3,64.4,62.3,64.4,62.4z M63.3,66.5c0-0.3-0.1-0.7-0.3-1
		c-0.2-0.3-0.5-0.4-0.9-0.4c-0.4,0-0.7,0.2-0.9,0.4c-0.2,0.3-0.4,0.6-0.3,1c0,0.3,0.1,0.7,0.4,0.9c0.2,0.3,0.6,0.4,0.9,0.4
		c0.3,0,0.7-0.2,0.9-0.4C63.2,67.2,63.3,66.9,63.3,66.5z"/>
</g>
<text transform="matrix(1 0 0 1 26.5195 74.5293)" class="st5 st6 st7">Q</text>
<text transform="matrix(1 0 0 1 38.4521 74.5293)" class="st5 st6 st8">uantum</text>
</svg>
