<?xml version="1.0" encoding="utf-8"?>
<!-- Generator: Adobe Illustrator 24.2.1, SVG Export Plug-In . SVG Version: 6.00 Build 0)  -->
<svg version="1.0" id="Layer_2" xmlns="http://www.w3.org/2000/svg" xmlns:xlink="http://www.w3.org/1999/xlink" x="0px" y="0px"
	 viewBox="0 0 100 100" style="enable-background:new 0 0 100 100;" xml:space="preserve">
<style type="text/css">
	.st0{fill:#2F3E50;}
	.st1{fill:#FCFCFC;}
	.st2{fill:#F7F7F7;}
	.st3{fill:#FEC12F;}
	.st4{fill:#FBFAFC;}
	.st5{fill:#F9F9F9;}
	.st6{font-family:'BerlinSansFB-Reg';}
	.st7{font-size:22.0462px;}
	.st8{font-size:13.2278px;}
</style>
<circle class="st0" cx="50.2" cy="50.7" r="47.8"/>
<path class="st1" d="M52.9,10.4C40.3,10,30.1,19.5,30.9,30.8c0.7,9.7,9.5,17.5,20.3,17.8c12.6,0.4,22.7-9.1,21.9-20.4
	C72.5,18.5,63.6,10.8,52.9,10.4z M53,44.7c-10,0.7-18.3-6.6-17.8-15.6c0.4-7.4,7-13.6,15.2-14.2c10-0.7,18.3,6.6,17.8,15.6
	C67.9,38,61.3,44.1,53,44.7z"/>
<polygon class="st2" points="74.1,57 59.8,26 55.6,26 69.9,57 "/>
<polygon class="st3" points="55.6,26 40.4,57.3 45.2,57.3 47.2,53.5 56.6,35.1 70.4,66.4 74.8,66.3 "/>
<g>
	<path class="st4" d="M52.8,73.8c0,0.1-0.1,0.1-0.2,0.1c-0.1,0-0.3,0-0.6,0c-0.2,0-0.4,0-0.6,0c-0.1,0-0.3,0-0.6,0
		c-0.3,0-0.4,0-0.6,0c-0.2,0-0.4-0.5-0.7-1.5c-0.3-1-0.6-1.5-0.9-1.5c-0.2,0-0.9,0-1.9,0h-1.6c-1.1,0-1.7,0-1.9,0
		c-0.2,0-0.5,0.5-0.8,1.6c-0.3,1-0.5,1.5-0.6,1.5h-2.3c-0.1,0-0.2,0-0.2-0.1c0-0.2,0.1-0.3,0.1-0.5l2.5-6.7c0.2-0.5,0.8-2.1,1.9-4.7
		c0.2-0.4,0.4-1.1,0.8-1.9c0.1-0.3,0.2-0.4,0.3-0.4c0.2,0,0.4,0,0.6,0.1c0.2,0,0.4,0,0.6,0c0.2,0,0.4,0,0.5-0.1c0.2,0,0.4,0,0.5-0.1
		c0.1,0,0.1,0.1,0.3,0.4c0.2,0.4,1,2.4,2.4,6.1C51.8,71.1,52.8,73.7,52.8,73.8z M48.1,68.2c-0.2-0.9-0.5-1.8-0.9-2.6
		c-0.6-1.5-1-2.5-1.2-3c-1.4,3.5-2.1,5.4-2.1,5.6c0,0.2,0.3,0.4,0.8,0.4c0,0,0.4,0,1,0h1C47.6,68.6,48.1,68.5,48.1,68.2L48.1,68.2z"
		/>
	<path class="st4" d="M58.7,69.9c0,0.3,0,0.7-0.1,1c-0.3,0.6-0.6,1.1-1,1.6c-0.3,0.5-0.7,1-1.1,1.4c-0.2,0-0.3,0-0.5,0
		c-0.2,0-0.4,0-0.5,0c-0.4-0.4-0.8-0.9-1.1-1.4c-0.4-0.5-0.7-1-1-1.6c-0.1-0.4-0.2-0.8-0.1-1.2c0-0.2,0-0.4,0-0.7c0-0.3,0-0.6,0-0.7
		c0-0.1,0-0.1,0.1-0.1c0,0,0,0,0,0c0.1,0,0.3,0,0.6,0s0.5,0,0.6,0c0.1,0,0.1,0,0.1,0.1c0,0.1,0,0.3,0,0.6c0,0.3,0,0.4,0,0.6
		c0,0.3,0,0.7,0.1,1c0.1,0.4,0.4,0.8,0.6,1.1c0.4,0.6,0.6,0.9,0.7,0.9c0.1,0,0.3-0.3,0.7-0.9c0.2-0.3,0.4-0.7,0.6-1.1
		c0-0.3,0.1-0.7,0-1c0-0.1,0-0.3,0-0.6c0-0.3,0-0.5,0-0.6c0,0,0-0.1,0.1-0.1c0,0,0,0,0,0c0.1,0,0.3,0,0.6,0s0.5,0,0.6,0
		C58.6,68.2,58.7,68.7,58.7,69.9z"/>
	<path class="st4" d="M61.3,66.7c0,0.5-0.3,0.7-0.8,0.7c-0.6,0-0.8-0.2-0.8-0.7c0-0.2,0.1-0.4,0.3-0.6c0.3-0.3,0.8-0.3,1.2,0
		C61.2,66.2,61.3,66.4,61.3,66.7z M61.3,68.3c0,0.3,0,0.8-0.1,1.4c0,0.6-0.1,1.1-0.1,1.4c0,0.3,0,0.7,0,1.3c0,0.6,0,1,0,1.3
		c0,0.1,0,0.1-0.1,0.1h-1.2c-0.1,0-0.1-0.1-0.1-0.2c0-0.3,0-0.7,0-1.3c0-0.6,0-1,0-1.3c0-0.3,0-0.8-0.1-1.4c0-0.6-0.1-1.1-0.1-1.4
		c0-0.1,0-0.1,0.1-0.1c0.1,0,0.2,0,0.3,0c0.2,0,0.5,0,0.7,0c0.1,0,0.2,0,0.3,0C61.2,68.2,61.3,68.2,61.3,68.3z"/>
	<path class="st4" d="M68.3,65.4c0,0.5,0,1.3-0.1,2.3c0,1-0.1,1.8-0.1,2.3c0,1.6,0,2.8,0.1,3.6l0,0.1c0,0-0.1,0.1-0.2,0.1
		c-0.1,0-0.2,0-0.3,0c-0.2,0-0.2,0-0.2,0c-0.1,0-0.1,0-0.3,0c-0.1,0-0.2,0-0.3,0c-0.1,0-0.1-0.1-0.1-0.4c0-0.1,0-0.3,0-0.4
		c0,0-0.1,0-0.1,0.1c-0.9,1.1-2.5,1.2-3.6,0.3c-0.1-0.1-0.2-0.2-0.3-0.3c-0.5-0.6-0.8-1.3-0.7-2.1c0-0.8,0.2-1.6,0.7-2.2
		c0.5-0.6,1.3-0.9,2-0.9c0.5,0,1,0.1,1.3,0.4c0.2,0.1,0.3,0.3,0.5,0.5c0,0,0.1,0,0-0.1v-2c0-0.1,0-0.3,0-0.6s0-0.5,0-0.6
		c0-0.1,0-0.1,0.1-0.1c0.1,0,0.4,0,0.7,0s0.5,0,0.7,0C68.2,65.3,68.3,65.4,68.3,65.4z M66.8,70.9c0-0.5-0.2-0.9-0.4-1.3
		c-0.3-0.4-0.7-0.6-1.2-0.6c-0.5,0-0.9,0.2-1.2,0.6c-0.3,0.4-0.5,0.8-0.5,1.3c0,0.5,0.2,0.9,0.5,1.3c0.3,0.4,0.7,0.6,1.2,0.6
		c0.5,0,0.9-0.2,1.2-0.6C66.6,71.9,66.8,71.4,66.8,70.9z"/>
</g>
<text transform="matrix(1 0 0 1 17.5415 81.6855)" class="st5 st6 st7">Q</text>
<text transform="matrix(1 0 0 1 33.5269 81.6855)" class="st5 st6 st8">uantum</text>
</svg>
