<?xml version="1.0" encoding="utf-8"?>
<!-- Generator: Adobe Illustrator 24.2.1, SVG Export Plug-In . SVG Version: 6.00 Build 0)  -->
<svg version="1.0" id="Layer_2" xmlns="http://www.w3.org/2000/svg" xmlns:xlink="http://www.w3.org/1999/xlink" x="0px" y="0px"
	 viewBox="0 0 100 100" style="enable-background:new 0 0 100 100;" xml:space="preserve">
<style type="text/css">
	.st0{fill:#2F3E50;}
	.st1{fill:#FCFCFC;}
	.st2{fill:#F7F7F7;}
	.st3{fill:#FEC12F;}
	.st4{fill:#FBFAFC;}
	.st5{fill:#F9F9F9;}
	.st6{font-family:'BerlinSansFB-Reg';}
	.st7{font-size:10.258px;}
	.st8{font-size:6.1548px;}
</style>
<circle class="st0" cx="52.5" cy="53" r="22.3"/>
<path class="st1" d="M53.7,34.2c-5.8-0.2-10.6,4.2-10.2,9.5c0.3,4.5,4.4,8.1,9.4,8.3c5.8,0.2,10.6-4.2,10.2-9.5
	C62.8,38,58.7,34.4,53.7,34.2z M53.8,50.2c-4.6,0.3-8.5-3.1-8.3-7.3c0.2-3.5,3.3-6.3,7.1-6.6c4.6-0.3,8.5,3.1,8.3,7.3
	C60.7,47.1,57.6,49.9,53.8,50.2z"/>
<polygon class="st2" points="63.6,55.9 57,41.5 55,41.5 61.6,55.9 "/>
<polygon class="st3" points="55,41.5 47.9,56.1 50.2,56.1 51.1,54.3 55.5,45.7 61.9,60.3 63.9,60.3 "/>
<g>
	<path class="st4" d="M53.7,63.7c0,0,0,0.1-0.1,0.1c-0.1,0-0.1,0-0.3,0c-0.1,0-0.2,0-0.3,0c-0.1,0-0.1,0-0.3,0c-0.1,0-0.2,0-0.3,0
		c-0.1,0-0.2-0.2-0.3-0.7s-0.3-0.7-0.4-0.7c-0.1,0-0.4,0-0.9,0h-0.7c-0.5,0-0.8,0-0.9,0c-0.1,0-0.2,0.2-0.4,0.7
		c-0.1,0.5-0.2,0.7-0.3,0.7h-1.1c-0.1,0-0.1,0-0.1-0.1c0-0.1,0-0.1,0.1-0.2l1.1-3.1c0.1-0.3,0.4-1,0.9-2.2c0.1-0.2,0.2-0.5,0.4-0.9
		c0-0.1,0.1-0.2,0.1-0.2c0.1,0,0.2,0,0.3,0c0.1,0,0.2,0,0.3,0c0.1,0,0.2,0,0.3,0c0.1,0,0.2,0,0.3,0c0,0,0.1,0.1,0.1,0.2
		c0.1,0.2,0.4,1.1,1.1,2.8C53.2,62.5,53.7,63.7,53.7,63.7z M51.5,61.1c-0.1-0.4-0.2-0.8-0.4-1.2c-0.3-0.7-0.5-1.2-0.6-1.4
		c-0.6,1.6-1,2.5-1,2.6c0,0.1,0.1,0.2,0.4,0.2c0,0,0.2,0,0.5,0h0.5C51.3,61.3,51.5,61.3,51.5,61.1L51.5,61.1z"/>
	<path class="st4" d="M56.4,61.9c0,0.2,0,0.3,0,0.5c-0.1,0.3-0.3,0.5-0.5,0.7c-0.1,0.2-0.3,0.5-0.5,0.7c-0.1,0-0.2,0-0.2,0
		c-0.1,0-0.2,0-0.2,0c-0.2-0.2-0.4-0.4-0.5-0.6c-0.2-0.2-0.3-0.5-0.5-0.7c-0.1-0.2-0.1-0.4-0.1-0.5c0-0.1,0-0.2,0-0.3s0-0.3,0-0.3
		c0,0,0-0.1,0-0.1c0,0,0,0,0,0c0.1,0,0.2,0,0.3,0c0.1,0,0.2,0,0.3,0c0,0,0.1,0,0.1,0.1c0,0.1,0,0.1,0,0.3c0,0.1,0,0.2,0,0.3
		c0,0.2,0,0.3,0,0.5c0.1,0.2,0.2,0.4,0.3,0.5c0.2,0.3,0.3,0.4,0.3,0.4c0,0,0.1-0.1,0.3-0.4c0.1-0.2,0.2-0.3,0.3-0.5
		c0-0.2,0-0.3,0-0.5c0-0.1,0-0.2,0-0.3s0-0.2,0-0.3c0,0,0,0,0,0c0,0,0,0,0,0c0.1,0,0.2,0,0.3,0c0.1,0,0.2,0,0.3,0
		C56.4,61.1,56.4,61.4,56.4,61.9z"/>
	<path class="st4" d="M57.7,60.4c0,0.2-0.1,0.3-0.4,0.3c-0.3,0-0.4-0.1-0.4-0.3c0-0.1,0-0.2,0.1-0.3c0.2-0.1,0.4-0.1,0.5,0
		C57.6,60.2,57.7,60.3,57.7,60.4z M57.6,61.2c0,0.1,0,0.4,0,0.7c0,0.3,0,0.5,0,0.7c0,0.1,0,0.3,0,0.6c0,0.3,0,0.5,0,0.6
		c0,0,0,0.1-0.1,0.1H57c0,0-0.1,0-0.1-0.1c0-0.1,0-0.3,0-0.6c0-0.3,0-0.5,0-0.6c0-0.1,0-0.4,0-0.7c0-0.3,0-0.5,0-0.7c0,0,0,0,0.1,0
		c0.1,0,0.1,0,0.2,0c0.1,0,0.2,0,0.3,0C57.5,61.1,57.5,61.1,57.6,61.2C57.6,61.1,57.6,61.1,57.6,61.2z"/>
	<path class="st4" d="M60.9,59.8c0,0.2,0,0.6,0,1.1s0,0.8,0,1.1c0,0.7,0,1.3,0,1.7l0,0c0,0,0,0-0.1,0c-0.1,0-0.1,0-0.2,0
		c-0.1,0-0.1,0-0.1,0c0,0-0.1,0-0.1,0c-0.1,0-0.1,0-0.1,0c0,0,0-0.1,0-0.2c0-0.1,0-0.1,0-0.2c0,0,0,0,0,0c-0.4,0.5-1.2,0.6-1.7,0.1
		c-0.1,0-0.1-0.1-0.1-0.1c-0.2-0.3-0.4-0.6-0.3-1c0-0.4,0.1-0.7,0.3-1c0.2-0.3,0.6-0.4,1-0.4c0.2,0,0.4,0.1,0.6,0.2
		c0.1,0.1,0.2,0.1,0.2,0.2c0,0,0,0,0,0v-0.9c0-0.1,0-0.2,0-0.3s0-0.2,0-0.3c0,0,0-0.1,0-0.1c0.1,0,0.2,0,0.3,0
		C60.7,59.8,60.8,59.8,60.9,59.8C60.9,59.8,60.9,59.8,60.9,59.8z M60.2,62.4c0-0.2-0.1-0.4-0.2-0.6c-0.1-0.2-0.3-0.3-0.6-0.3
		c-0.2,0-0.4,0.1-0.6,0.3c-0.1,0.2-0.2,0.4-0.2,0.6c0,0.2,0.1,0.4,0.2,0.6c0.1,0.2,0.3,0.3,0.6,0.3c0.2,0,0.4-0.1,0.6-0.3
		C60.1,62.8,60.2,62.6,60.2,62.4z"/>
</g>
<text transform="matrix(1 0 0 1 37.2871 67.4014)" class="st5 st6 st7">Q</text>
<text transform="matrix(1 0 0 1 44.7256 67.4014)" class="st5 st6 st8">uantum</text>
</svg>
