<svg id="bg" xmlns="http://www.w3.org/2000/svg" width="100" height="100" viewBox="0 0 100 100">
  <defs>
    <style>
      .cls-1 {
        fill: #fcfcfc;
      }

      .cls-2 {
        fill: #f7f7f7;
      }

      .cls-3 {
        fill: #fec12f;
      }

      .cls-4 {
        fill: #fbfafc;
      }

      .cls-5 {
        font-size: 23.0516px;
        fill: #f9f9f9;
        font-family: BerlinSansFB-Reg, Berlin Sans FB;
      }

      .cls-6 {
        font-size: 13.831px;
      }
    </style>
  </defs>
  <circle cx="50" cy="50" r="50"/>
  <path class="cls-1" d="M52.7468,8.8556C39.6192,8.4407,28.98,18.3294,29.8126,30.1724,30.5255,40.3128,39.77,48.43,51.01,48.7852c13.1276.415,23.7666-9.4737,22.9341-21.3167C73.2315,17.328,63.9873,9.2109,52.7468,8.8556Zm.1956,35.7983c-10.4267.7433-19.1395-6.9071-18.6135-16.3439.4337-7.7824,7.3273-14.19,15.926-14.8028,10.4267-.7434,19.14,6.907,18.6135,16.3439C68.4347,37.6335,61.5411,44.0409,52.9424,44.6539Z" transform="translate(0 -1)"/>
  <polygon class="cls-2" points="74.954 56.592 60.009 24.153 55.581 24.104 70.527 56.592 74.954 56.592"/>
  <polygon class="cls-3" points="55.581 24.104 39.756 56.872 44.762 56.872 46.851 52.916 56.654 33.693 71.033 66.33 75.685 66.299 55.581 24.104"/>
  <g>
    <path class="cls-4" d="M52.66,75.0752q0,.126-.252.126c-.1348,0-.3281-.0108-.584-.0313-.2578-.0215-.4521-.0322-.5859-.0322s-.333.0107-.6.0322-.4673.0313-.6006.0313q-.2952,0-.7529-1.5957t-.9322-1.6162q-.39-.0221-2.0327-.0215h-1.664q-1.7375,0-1.98.0215-.38.0307-.8057,1.622-.4271,1.5894-.6587,1.59h-2.37c-.14,0-.21-.0489-.21-.1475A1.8,1.8,0,0,1,38.78,74.58l2.58-7.0567q.3265-.8524,1.98-4.9179.2952-.6738.8008-2.0332.126-.4.2735-.3994a4.7839,4.7839,0,0,1,.59.0527,4.7588,4.7588,0,0,0,.59.0517,4.158,4.158,0,0,0,.5742-.0576,4.2988,4.2988,0,0,1,.5634-.0576q.0945,0,.2632.39.2527.59,2.4961,6.35Q52.66,75.0016,52.66,75.0752Zm-4.9073-5.8135a17.6288,17.6288,0,0,0-.9477-2.7383q-.9164-2.36-1.2954-3.0966-2.18,5.56-2.18,5.8242,0,.3575.8.4209.0417.01,1.0322.0107h1.0845Q47.7525,69.6826,47.7529,69.2617Z" transform="translate(0 -1)"/>
    <path class="cls-4" d="M58.8525,71.0176a4.8341,4.8341,0,0,1-.0566,1.0371,12.2657,12.2657,0,0,1-1.0234,1.6611,7.4187,7.4187,0,0,1-1.1377,1.4854,2.0062,2.0062,0,0,1-.5313.0381,2.5108,2.5108,0,0,1-.5556-.0381,6.8716,6.8716,0,0,1-1.1563-1.4278,12.9993,12.9993,0,0,1-1.0684-1.624,3.7251,3.7251,0,0,1-.1513-1.2324q0-.2593.0127-.7774t.0127-.7773a.1223.1223,0,0,1,.1386-.1387c.14,0,.3467.0059.6231.0186s.4834.02.6221.02c.0761,0,.1132.042.1132.126q0,.2022-.0244.5967c-.0176.2636-.0254.4629-.0254.5976a8.2074,8.2074,0,0,0,.0625,1.0616,4.6376,4.6376,0,0,0,.6416,1.1757q.6095.9347.7549.9346.1392,0,.69-.916a4.9917,4.9917,0,0,0,.581-1.1309,7.8292,7.8292,0,0,0,.0508-1.0869c0-.14-.0137-.3476-.041-.626s-.041-.4863-.041-.625a.0835.0835,0,0,1,.0947-.0947q.2081,0,.6123-.0224t.6074-.0225Q58.8521,69.23,58.8525,71.0176Z" transform="translate(0 -1)"/>
    <path class="cls-4" d="M61.5889,67.6436q0,.7777-.8653.7773-.8788,0-.8789-.7773a.7187.7187,0,0,1,.2725-.5752.9556.9556,0,0,1,1.2158.0068A.7162.7162,0,0,1,61.5889,67.6436Zm-.044,1.7128q0,.4865-.0595,1.4688t-.0606,1.4756q0,.4614.02,1.3808c.0118.6123.0186,1.0713.0186,1.3741,0,.0888-.0381.1328-.1143.1328H60.1172c-.0889,0-.1328-.086-.1328-.2588q0-.4365.0215-1.3115.0234-.8745.0224-1.3174,0-.4936-.0722-1.4785t-.0733-1.4785c0-.0723.0449-.1075.1328-.1075a3.031,3.031,0,0,1,.3506.0313,2.0575,2.0575,0,0,0,.7139,0,3.0683,3.0683,0,0,1,.3574-.0313C61.5088,69.2363,61.5449,69.2764,61.5449,69.3564Z" transform="translate(0 -1)"/>
    <path class="cls-4" d="M68.8682,66.3857q0,.816-.0723,2.4424t-.0732,2.4365q0,2.4962.1074,3.7784l.0068.082c.0039.043-.0527.07-.1709.082a2.1548,2.1548,0,0,1-.3408,0c-.1768-.0117-.2588-.0185-.2471-.0185-.0625,0-.1552.0068-.2773.0185s-.2149.02-.2783.02c-.0586,0-.0938-.1465-.1045-.44a1.3,1.3,0,0,0-.0469-.4453.37.37,0,0,0-.0947.082,2.6663,2.6663,0,0,1-4.0889-.0381,3.3053,3.3053,0,0,1-.7773-2.2109,3.3619,3.3619,0,0,1,.7841-2.2627,2.6822,2.6822,0,0,1,2.1416-.96,2.1839,2.1839,0,0,1,1.3907.4668c.1806.1563.36.3145.5371.4747a.0843.0843,0,0,0,.0508-.0889V67.7578c0-.14-.0069-.35-.02-.6318s-.0185-.4951-.0185-.6387c0-.1016.0332-.1514.1006-.1514q.2343,0,.6953-.041t.6884-.041C68.833,66.2539,68.8682,66.2979,68.8682,66.3857Zm-1.5791,5.751a2.0551,2.0551,0,0,0-.4678-1.334A1.5386,1.5386,0,0,0,65.583,70.19a1.5984,1.5984,0,0,0-1.2832.6065,2.0451,2.0451,0,0,0-.4805,1.3652,1.9293,1.9293,0,0,0,.4991,1.32,1.6037,1.6037,0,0,0,1.2646.5938,1.5525,1.5525,0,0,0,1.251-.6A2.0692,2.0692,0,0,0,67.2891,72.1367Z" transform="translate(0 -1)"/>
  </g>
  <text class="cls-5" transform="translate(15.8149 82.3643)">Q<tspan class="cls-6" x="16.7148" y="0">uantum</tspan></text>
</svg>
