<?xml version="1.0" encoding="utf-8"?>
<!-- Generator: Adobe Illustrator 24.2.1, SVG Export Plug-In . SVG Version: 6.00 Build 0)  -->
<svg version="1.1" id="Layer_2" xmlns="http://www.w3.org/2000/svg" xmlns:xlink="http://www.w3.org/1999/xlink" x="0px" y="0px"
	 viewBox="0 0 100 100" style="enable-background:new 0 0 100 100;" xml:space="preserve">
<style type="text/css">
	.st0{fill:#2F3E50;}
	.st1{fill:#FCFCFC;}
	.st2{fill:#F7F7F7;}
	.st3{fill:#FEC12F;}
	.st4{fill:#FBFAFC;}
	.st5{font-family:'BerlinSansFB-Reg';}
	.st6{font-size:21.5688px;}
	.st7{font-size:12.9413px;}
	.st8{fill:#F9F9F9;}
	.st9{font-size:23.0516px;}
	.st10{font-size:13.831px;}
</style>
<circle class="st0" cx="50" cy="51" r="50"/>
<path class="st1" d="M52.75,8.86c-13.13-0.41-23.77,9.47-22.93,21.32c0.71,10.14,9.96,18.26,21.2,18.61
	c13.13,0.41,23.77-9.47,22.93-21.32C73.23,17.33,63.99,9.21,52.75,8.86z M52.94,44.65C42.52,45.4,33.8,37.75,34.33,28.31
	c0.43-7.78,7.33-14.19,15.93-14.8c10.43-0.74,19.14,6.91,18.61,16.34C68.43,37.63,61.54,44.04,52.94,44.65z"/>
<g>
	<polygon class="st2" points="74.95,57.59 60.01,25.15 55.58,25.1 70.53,57.59 	"/>
</g>
<polygon class="st3" points="55.58,25.1 39.76,57.87 44.76,57.87 46.85,53.92 56.65,34.69 71.03,67.33 75.68,67.3 "/>
<text transform="matrix(1 0 0 1 38.5376 75.2012)"><tspan x="0" y="0" class="st4 st5 st6">A</tspan><tspan x="14.22" y="0" class="st4 st5 st7">vid </tspan></text>
<text transform="matrix(1 0 0 1 15.8149 83.3643)"><tspan x="0" y="0" class="st8 st5 st9">Q</tspan><tspan x="16.71" y="0" class="st8 st5 st10">uantum</tspan></text>
</svg>
